<svg width="104" height="32" viewBox="0 0 104 32" fill="none" xmlns="http://www.w3.org/2000/svg">
    <g id="LogoInverted">
        <g id="name">
            <path fill-rule="evenodd" clip-rule="evenodd"
                d="M57.7501 19.2269C58.9557 19.2269 59.9129 19.5914 60.6216 20.3205C61.3427 21.0497 61.7031 22.0694 61.7032 23.3794V24.4733H55.7921V24.5474C55.7921 25.2518 56.0408 25.7772 56.5381 26.1233C57.0353 26.4693 57.6755 26.6423 58.4585 26.6423C58.9558 26.6423 59.391 26.5928 59.764 26.494C60.1493 26.3951 60.4976 26.2779 60.8083 26.1419L61.2556 27.8659C60.9202 28.0265 60.4975 28.1626 59.9876 28.2739C59.4781 28.3974 58.8752 28.4589 58.1792 28.4589C57.5077 28.4589 56.8737 28.3727 56.2769 28.1998C55.6928 28.0144 55.1769 27.7361 54.7293 27.3653C54.2943 26.9946 53.9461 26.5248 53.685 25.9563C53.4239 25.3878 53.2934 24.708 53.2934 23.9171C53.2934 23.2126 53.3991 22.5763 53.6106 22.0077C53.822 21.4269 54.1201 20.9324 54.5054 20.5245C54.9034 20.1167 55.3757 19.8016 55.9226 19.5792C56.4698 19.3444 57.0787 19.2269 57.7501 19.2269ZM57.6569 20.9695C57.1596 20.9695 56.7492 21.1364 56.4261 21.4701C56.1031 21.8038 55.9104 22.2549 55.8481 22.8234L59.1672 22.7864C59.1672 22.5516 59.1363 22.3229 59.074 22.1004C59.0244 21.878 58.9371 21.6864 58.8129 21.5258C58.6886 21.3527 58.5331 21.2167 58.3468 21.1178C58.1603 21.0189 57.9303 20.9695 57.6569 20.9695Z"
                fill="#6366F1" />
            <path fill-rule="evenodd" clip-rule="evenodd"
                d="M71.7617 28.2552H69.9905L69.7293 27.2913H69.6361C69.4123 27.6001 69.0892 27.8719 68.6665 28.1069C68.2562 28.3417 67.7154 28.4589 67.0442 28.4589C66.4847 28.4589 65.9628 28.3539 65.4779 28.1439C64.993 27.9337 64.5703 27.6312 64.2099 27.2356C63.8495 26.8401 63.5635 26.3581 63.3523 25.7896C63.1532 25.2211 63.0539 24.5722 63.0539 23.843C63.0539 23.1386 63.147 22.502 63.3335 21.9335C63.52 21.3649 63.7874 20.883 64.1354 20.4875C64.4835 20.0797 64.9123 19.7706 65.4219 19.5605C65.9315 19.3381 66.5161 19.2269 67.1749 19.2269C67.5975 19.2269 67.9952 19.2886 68.3682 19.4122C68.7535 19.5358 69.058 19.6964 69.2818 19.8942V15.0186H71.7617V28.2552ZM67.7899 21.0251C67.4918 21.0251 67.2057 21.0746 66.9323 21.1735C66.6712 21.2723 66.435 21.433 66.2238 21.6554C66.0247 21.8655 65.8633 22.1498 65.739 22.5081C65.6148 22.8541 65.5526 23.2807 65.5526 23.7874C65.5526 24.2817 65.6084 24.708 65.7203 25.0664C65.8322 25.4248 65.9816 25.7215 66.1681 25.9563C66.3543 26.1911 66.5721 26.3641 66.8206 26.4753C67.0816 26.5866 67.355 26.6423 67.6407 26.6423C68.0387 26.6423 68.3746 26.5497 68.6481 26.3643C68.9338 26.1666 69.1452 25.9378 69.2818 25.6783V21.7295C69.1203 21.5318 68.9091 21.365 68.6481 21.2291C68.387 21.0931 68.1006 21.0251 67.7899 21.0251Z"
                fill="#6366F1" />
            <path fill-rule="evenodd" clip-rule="evenodd"
                d="M90.4398 19.2269C91.0862 19.2269 91.6829 19.3258 92.23 19.5235C92.7892 19.7213 93.2677 20.0117 93.6657 20.3948C94.0757 20.7656 94.393 21.2353 94.6168 21.8038C94.8529 22.3722 94.9711 23.0273 94.9711 23.7687C94.9711 24.4979 94.8529 25.1531 94.6168 25.734C94.3806 26.3148 94.0511 26.8091 93.6284 27.217C93.2181 27.6125 92.7333 27.9217 92.174 28.1442C91.6146 28.3541 91.0117 28.4589 90.3653 28.4589C89.7189 28.4589 89.1158 28.3603 88.5563 28.1626C88.0095 27.9646 87.5309 27.6743 87.1207 27.2913C86.723 26.9081 86.4057 26.4385 86.1695 25.8823C85.9458 25.3138 85.834 24.6711 85.8339 23.9543C85.8339 23.2004 85.9522 22.533 86.1883 21.9521C86.4244 21.3588 86.7479 20.8643 87.1579 20.4688C87.5805 20.061 88.0718 19.7522 88.631 19.5421C89.1905 19.332 89.7933 19.2269 90.4398 19.2269ZM90.3838 21.0438C90.1227 21.0438 89.8742 21.093 89.6381 21.1918C89.4017 21.2784 89.1904 21.433 89.0039 21.6554C88.8174 21.8655 88.6682 22.1498 88.5563 22.5081C88.4444 22.8665 88.3889 23.3179 88.3889 23.8617C88.3889 24.3436 88.4444 24.7637 88.5563 25.122C88.6682 25.4681 88.8174 25.7525 89.0039 25.975C89.2027 26.1975 89.4204 26.3644 89.6569 26.4756C89.9053 26.5868 90.16 26.6423 90.421 26.6423C90.6821 26.6423 90.9308 26.5991 91.167 26.5126C91.4034 26.4137 91.6145 26.253 91.8009 26.0306C91.9875 25.8081 92.1366 25.5238 92.2485 25.1777C92.3604 24.8193 92.4165 24.3807 92.4165 23.8617C92.4165 23.3549 92.3604 22.9222 92.2485 22.5638C92.1366 22.2054 91.9874 21.9149 91.8009 21.6925C91.6145 21.47 91.397 21.3093 91.1485 21.2105C90.8997 21.0992 90.6449 21.0438 90.3838 21.0438Z"
                fill="#6366F1" />
            <path
                d="M82.1449 19.4122H84.5132V21.1921H82.1449V25.2706C82.145 25.6908 82.2383 25.9813 82.4248 26.1419C82.6237 26.2902 82.8847 26.3643 83.2077 26.3643C83.4565 26.3643 83.7113 26.3397 83.9724 26.2903C84.2335 26.2408 84.4449 26.1728 84.6064 26.0863L84.9793 27.8103C84.7681 27.909 84.4511 28.0082 84.0284 28.1072C83.6058 28.2059 83.158 28.2555 82.6857 28.2555C81.6043 28.2555 80.8336 28.0451 80.3737 27.6249C79.9138 27.1924 79.6837 26.5497 79.6837 25.697V21.1921H78.3038V19.4122H79.6837V16.6872H82.1449V19.4122Z"
                fill="#6366F1" />
            <path d="M76.7305 28.2552H74.2505V19.4122H76.7305V28.2552Z" fill="#6366F1" />
            <path
                d="M101.676 19.2269C101.962 19.2269 102.217 19.2578 102.441 19.3195C102.664 19.3813 102.851 19.4556 103 19.5421L102.59 21.4885C102.453 21.4144 102.279 21.3526 102.068 21.3031C101.856 21.2413 101.608 21.2105 101.322 21.2105C100.713 21.2105 100.203 21.4146 99.7931 21.8224C99.3951 22.2179 99.1961 22.8728 99.1961 23.7874V28.2552H96.7349V19.4122H98.6553L98.9352 21.0065C99.1467 20.5369 99.4821 20.1229 99.942 19.7645C100.402 19.4061 100.98 19.2269 101.676 19.2269Z"
                fill="#6366F1" />
            <path
                d="M75.4998 15C75.8844 15 76.1925 15.1087 76.4241 15.3259L76.5146 15.4154C76.7333 15.6428 76.8424 15.9246 76.8425 16.2606C76.8425 16.619 76.7245 16.9218 76.4881 17.169C76.2519 17.4038 75.9224 17.5213 75.4998 17.5213C75.0772 17.5212 74.7478 17.4038 74.5117 17.169C74.2756 16.9218 74.1573 16.619 74.1573 16.2606C74.1573 15.9022 74.2755 15.6055 74.5117 15.3707C74.7478 15.1235 75.0772 15 75.4998 15Z"
                fill="#6366F1" />
            <path
                d="M29.8597 25.7096L31.6486 19.5644H34.3755L29.5865 32H26.9112L28.5028 28.1896L25.0152 19.5644H27.8897L29.8597 25.7096Z"
                fill="#F4F4F5" />
            <path fill-rule="evenodd" clip-rule="evenodd"
                d="M47.1031 19.382C48.4528 19.382 49.4588 19.6096 50.1217 20.0648C50.7846 20.52 51.1149 21.3296 51.1149 22.4915V24.6133H45.4395V25.4045C45.4396 25.8963 45.6152 26.2523 45.964 26.4744C46.3129 26.6965 46.9705 26.8068 47.934 26.8068C48.8017 26.8068 49.7784 26.6801 50.862 26.4286V28.0991C49.7526 28.3265 48.6077 28.4405 47.428 28.4405C44.3321 28.4404 42.7831 27.5004 42.7831 25.6191V22.4915C42.7831 21.3773 43.1449 20.5806 43.8668 20.1015C44.5906 19.6225 45.6687 19.382 47.1031 19.382ZM47.0664 21.0008C46.4277 21.0008 45.9974 21.0761 45.7741 21.2247C45.5506 21.3753 45.4396 21.5864 45.4395 21.8636V23.121H48.6022V21.8636C48.6022 21.5883 48.4915 21.3753 48.2682 21.2247C48.0447 21.0743 47.6443 21.0008 47.0664 21.0008Z"
                fill="#F4F4F5" />
            <path fill-rule="evenodd" clip-rule="evenodd"
                d="M17.6383 20.4256C17.7952 20.031 18.0869 19.7576 18.5152 19.6089C18.9435 19.4584 19.597 19.3849 20.4758 19.3849C21.2234 19.3849 21.8309 19.4454 22.3017 19.5647C22.7706 19.684 23.1269 19.8786 23.3688 20.1484C23.6088 20.4182 23.7696 20.7137 23.8471 21.0386C23.9284 21.3598 23.9671 21.7839 23.9671 22.3126V25.1704C23.9671 26.3561 23.6088 27.1987 22.8907 27.6943C22.1743 28.1917 21.0205 28.4397 19.4291 28.4397C17.7546 28.4397 16.5968 28.1789 15.9581 27.6576C15.3193 27.1363 15 26.3065 15 25.1685V15.6808H17.6383V20.4256ZM19.4494 21C18.7017 21 18.2143 21.0957 17.9854 21.2884C17.7565 21.4793 17.642 21.8151 17.642 22.2942V25.5099C17.642 26.0257 17.7526 26.369 17.976 26.5434C18.1994 26.7178 18.6962 26.8041 19.4679 26.8041C20.2395 26.8041 20.7417 26.7178 20.9761 26.5434C21.2106 26.3709 21.3289 26.0257 21.3289 25.5099V22.2942C21.3289 21.7307 21.2235 21.3745 21.0131 21.2239C20.8026 21.0735 20.2801 21 19.4494 21Z"
                fill="#F4F4F5" />
            <path
                d="M39.1136 19.5602H41.5173V21.1773H39.1136V25.2743C39.1136 25.8726 39.2042 26.2782 39.3852 26.4875C39.566 26.6967 39.9631 26.8014 40.5777 26.8014C40.7825 26.8014 41.0966 26.772 41.5173 26.7114V28.3489H41.521C41.0153 28.4094 40.5276 28.4386 40.057 28.4386C39.6473 28.4386 39.289 28.4239 38.9808 28.3925C38.6742 28.3631 38.3548 28.2919 38.0224 28.1782C37.69 28.0642 37.4207 27.9155 37.2085 27.7281C36.9978 27.543 36.8225 27.2786 36.684 26.9373C36.5455 26.5959 36.4754 26.1918 36.4754 25.7238V21.1773H34.7049V19.5602H36.4754V17.0437H39.1136V19.5602Z"
                fill="#F4F4F5" />
        </g>
        <g id="symbol">
            <path
                d="M6.69967 3.19974C9.84741 3.19978 12.399 5.75164 12.3991 8.89941C12.3991 12.0472 9.84742 14.599 6.69967 14.5991C3.55186 14.5991 1 12.0472 1 8.89941C1.00001 5.75162 3.55187 3.19974 6.69967 3.19974Z"
                fill="#6366F1" />
            <path
                d="M17.6698 3.19974C20.0533 3.19974 21.9856 5.1321 21.9856 7.51556C21.9856 9.89903 20.0532 11.8311 17.6698 11.8311C15.2864 11.831 13.3543 9.89899 13.3543 7.51556C13.3543 5.13214 15.2864 3.19981 17.6698 3.19974Z"
                fill="#6366F1" />
            <path
                d="M22.0066 1.90245C22.7716 0.70716 24.8919 0.698023 26.7425 1.88227C28.5932 3.06651 29.4732 4.99557 28.7082 6.1909C27.9433 7.38622 25.823 7.39534 23.9723 6.21108C22.1217 5.0268 21.2417 3.09778 22.0066 1.90245Z"
                fill="#6366F1" />
        </g>
    </g>
</svg>