<svg id="chart" width="24" height="24" viewBox="0 0 24 24" fill="none" xmlns="http://www.w3.org/2000/svg">
<g id="chart">
<path id="Vector" fill-rule="evenodd" clip-rule="evenodd" d="M9.25 4C9.25 3.0335 10.0335 2.25 11 2.25H13C13.9665 2.25 14.75 3.0335 14.75 4V20C14.75 20.9665 13.9665 21.75 13 21.75H11C10.0335 21.75 9.25 20.9665 9.25 20V4ZM11 3.75C10.8619 3.75 10.75 3.86193 10.75 4V20C10.75 20.1381 10.8619 20.25 11 20.25H13C13.1381 20.25 13.25 20.1381 13.25 20V4C13.25 3.86193 13.1381 3.75 13 3.75H11ZM2.25 9C2.25 8.0335 3.0335 7.25 4 7.25H6C6.9665 7.25 7.75 8.0335 7.75 9V20C7.75 20.9665 6.9665 21.75 6 21.75H4C3.0335 21.75 2.25 20.9665 2.25 20V9ZM4 8.75C3.86193 8.75 3.75 8.86193 3.75 9V20C3.75 20.1381 3.86193 20.25 4 20.25H6C6.13807 20.25 6.25 20.1381 6.25 20V9C6.25 8.86193 6.13807 8.75 6 8.75H4ZM16.25 14C16.25 13.0335 17.0335 12.25 18 12.25H20C20.9665 12.25 21.75 13.0335 21.75 14V20C21.75 20.9665 20.9665 21.75 20 21.75H18C17.0335 21.75 16.25 20.9665 16.25 20V14ZM18 13.75C17.8619 13.75 17.75 13.8619 17.75 14V20C17.75 20.1381 17.8619 20.25 18 20.25H20C20.1381 20.25 20.25 20.1381 20.25 20V14C20.25 13.8619 20.1381 13.75 20 13.75H18Z" fill="white"/>
</g>
</svg>
