<svg id="edit square" width="24" height="24" viewBox="0 0 24 24" fill="none" xmlns="http://www.w3.org/2000/svg">
<g id="edit square">
<path id="Vector" fill-rule="evenodd" clip-rule="evenodd" d="M6 3.75C4.75736 3.75 3.75 4.75736 3.75 6V18C3.75 19.2426 4.75736 20.25 6 20.25H18C19.2426 20.25 20.25 19.2426 20.25 18V12C20.25 11.5858 20.5858 11.25 21 11.25C21.4142 11.25 21.75 11.5858 21.75 12V18C21.75 20.0711 20.0711 21.75 18 21.75H6C3.92893 21.75 2.25 20.0711 2.25 18V6C2.25 3.92893 3.92893 2.25 6 2.25H12C12.4142 2.25 12.75 2.58579 12.75 3C12.75 3.41421 12.4142 3.75 12 3.75H6ZM17.179 2.77846C17.8836 2.07385 19.026 2.07385 19.7306 2.77846L21.2215 4.26941C21.9262 4.97402 21.9262 6.11642 21.2215 6.82103L14.0302 14.0124C13.7913 14.2513 13.4883 14.4159 13.1579 14.4864L9.6565 15.2335C9.40792 15.2865 9.1494 15.2101 8.96967 15.0303C8.78994 14.8506 8.71347 14.5921 8.76651 14.3435L9.51358 10.8421C9.58407 10.5117 9.74871 10.2087 9.98762 9.96981L17.179 2.77846ZM18.6699 3.83912C18.5511 3.72029 18.3585 3.72029 18.2396 3.83912L11.0483 11.0305C11.0141 11.0646 10.9906 11.1079 10.9806 11.1551L10.4749 13.5251L12.8449 13.0194C12.8921 13.0094 12.9354 12.9859 12.9695 12.9517L20.1609 5.76037C20.2797 5.64155 20.2797 5.4489 20.1609 5.33007L18.6699 3.83912Z" fill="white"/>
</g>
</svg>
