<svg id="megaphone" width="24" height="24" viewBox="0 0 24 24" fill="none" xmlns="http://www.w3.org/2000/svg">
<g id="megaphone">
<path id="Vector" fill-rule="evenodd" clip-rule="evenodd" d="M17.5793 1.32212C17.9711 1.49929 18.1384 1.94643 17.953 2.32085L16.9824 4.28085C16.797 4.65526 16.3291 4.81516 15.9373 4.63799C15.5454 4.46083 15.3781 4.01368 15.5635 3.63927L16.5341 1.67926C16.7195 1.30485 17.1875 1.14495 17.5793 1.32212ZM12.5917 5.56236C11.448 4.82535 10.6318 4.78086 10.193 5.02168C9.7567 5.26113 9.38979 5.95097 9.48927 7.25939C9.58445 8.51137 10.1052 10.0886 11.0643 11.6677C12.0233 13.2467 13.2002 14.4647 14.2944 15.1698C15.4381 15.9068 16.2544 15.9513 16.6932 15.7105C17.1295 15.471 17.4964 14.7812 17.3969 13.4728C17.3017 12.2208 16.7809 10.6435 15.8219 9.06444C14.8629 7.48547 13.686 6.26748 12.5917 5.56236ZM17.475 17.0112C18.7273 16.3239 19.0742 14.8327 18.9625 13.3641C18.8466 11.839 18.2313 10.0432 17.1796 8.31151C16.1277 6.57967 14.7996 5.17593 13.4694 4.31873C12.1887 3.49342 10.6611 3.03499 9.41119 3.72095C8.39993 4.27596 7.54969 5.06206 6.93769 6.00852L1.79062 13.9684C1.08873 15.0539 1.06893 16.4183 1.73917 17.5218C2.48561 18.7508 3.94219 19.4214 5.41529 19.219L5.74544 19.1736L7.24022 21.6347C7.75913 22.4891 8.80376 22.9162 9.8091 22.6902L12.6033 22.0623C13.7902 21.7956 14.3791 20.5116 13.7641 19.499L12.9642 18.182L14.6049 17.9566C15.6159 17.8177 16.59 17.4969 17.475 17.0112ZM13.6697 16.5696C13.5844 16.5193 13.5001 16.4671 13.4167 16.4134C12.0865 15.5562 10.7585 14.1525 9.70661 12.4206C8.65482 10.6889 8.03957 8.89313 7.92362 7.36808C7.92293 7.35891 7.92225 7.34975 7.92159 7.34059L3.12603 14.7569C2.72838 15.3719 2.71723 16.1439 3.09685 16.7689C3.52021 17.466 4.3495 17.85 5.19192 17.7343L13.6697 16.5696ZM11.289 18.4121L7.42065 18.9435L8.5979 20.8818C8.76808 21.162 9.11385 21.3055 9.44973 21.2301L12.244 20.6021C12.4134 20.5641 12.4882 20.3866 12.4064 20.2519L11.289 18.4121ZM22.1363 5.59503C22.3522 5.95421 22.2225 6.41263 21.8466 6.61892L19.5943 7.85502C19.2185 8.06132 18.7387 7.93738 18.5228 7.57819C18.3069 7.21901 18.4366 6.76059 18.8125 6.5543L21.0648 5.3182C21.4407 5.1119 21.9204 5.23584 22.1363 5.59503ZM19.912 11.1771C19.948 10.7643 20.3274 10.4576 20.7594 10.492L23.0303 10.673C23.4623 10.7074 23.7833 11.0699 23.7473 11.4827C23.7113 11.8955 23.3319 12.2022 22.8999 12.1678L20.6289 11.9868C20.197 11.9524 19.876 11.5899 19.912 11.1771Z" fill="white"/>
</g>
</svg>
