<svg id="settings" width="24" height="24" viewBox="0 0 24 24" fill="none" xmlns="http://www.w3.org/2000/svg">
<g id="settings">
<path id="Vector" fill-rule="evenodd" clip-rule="evenodd" d="M9.25 3.5C9.25 2.25736 10.2574 1.25 11.5 1.25H12.5C13.7426 1.25 14.75 2.25736 14.75 3.5V4.15385C14.75 4.5993 15.2886 4.82239 15.6036 4.5074L16.0659 4.04505C16.9446 3.16637 18.3692 3.16637 19.2479 4.04505L19.955 4.75215C20.8337 5.63083 20.8337 7.05546 19.955 7.93414L19.4927 8.39645C19.1777 8.71143 19.4008 9.25 19.8462 9.25H20.5C21.7426 9.25 22.75 10.2574 22.75 11.5V12.5C22.75 13.7426 21.7426 14.75 20.5 14.75H19.8462C19.4008 14.75 19.1777 15.2886 19.4927 15.6036L19.955 16.0659C20.8337 16.9445 20.8337 18.3692 19.955 19.2478L19.2479 19.955C18.3692 20.8336 16.9446 20.8336 16.0659 19.9549L15.6036 19.4926C15.2886 19.1776 14.75 19.4007 14.75 19.8461V20.5C14.75 21.7426 13.7426 22.75 12.5 22.75H11.5C10.2574 22.75 9.25 21.7426 9.25 20.5V19.8462C9.25 19.4008 8.71143 19.1777 8.39645 19.4927L7.93418 19.955L7.40385 19.4246L7.93418 19.955C7.0555 20.8336 5.63088 20.8336 4.7522 19.955L4.04509 19.2478C3.16641 18.3692 3.16642 16.9445 4.04509 16.0659L4.5074 15.6036C4.82239 15.2886 4.5993 14.75 4.15385 14.75H3.5C2.25736 14.75 1.25 13.7426 1.25 12.5V11.5C1.25 10.2574 2.25736 9.25 3.5 9.25H4.15385C4.5993 9.25 4.82239 8.71143 4.5074 8.39645L4.04509 7.93414C3.16641 7.05546 3.16641 5.63084 4.04509 4.75216L4.7522 4.04505C5.63088 3.16637 7.0555 3.16637 7.93418 4.04505L8.39645 4.50731C8.71143 4.82229 9.25 4.59921 9.25 4.15376V3.5ZM11.5 2.75C11.0858 2.75 10.75 3.08579 10.75 3.5V4.15376C10.75 5.93557 8.59572 6.82791 7.33579 5.56797L6.87352 5.10571C6.58063 4.81282 6.10575 4.81282 5.81286 5.10571L5.10575 5.81282C4.81286 6.10571 4.81286 6.58058 5.10575 6.87348L5.56806 7.33578C6.82799 8.59571 5.93566 10.75 4.15385 10.75H3.5C3.08579 10.75 2.75 11.0858 2.75 11.5V12.5C2.75 12.9142 3.08579 13.25 3.5 13.25H4.15385C5.93566 13.25 6.828 15.4043 5.56807 16.6642L5.10576 17.1265C4.81286 17.4194 4.81286 17.8943 5.10575 18.1872L5.81286 18.8943C6.10575 19.1872 6.58063 19.1872 6.87352 18.8943L7.33579 18.432L7.86612 18.9624L7.33579 18.432C8.59572 17.1721 10.75 18.0644 10.75 19.8462V20.5C10.75 20.9142 11.0858 21.25 11.5 21.25H12.5C12.9142 21.25 13.25 20.9142 13.25 20.5V19.8461C13.25 18.0643 15.4043 17.172 16.6642 18.4319L17.1266 18.8943C17.4195 19.1872 17.8943 19.1872 18.1872 18.8943L18.8943 18.1872C19.1872 17.8943 19.1872 17.4194 18.8943 17.1265L18.432 16.6642C17.1721 15.4043 18.0644 13.25 19.8462 13.25H20.5C20.9142 13.25 21.25 12.9142 21.25 12.5V11.5C21.25 11.0858 20.9142 10.75 20.5 10.75H19.8462C18.0644 10.75 17.1721 8.59572 18.432 7.33579L18.8943 6.87348C19.1872 6.58058 19.1872 6.10571 18.8943 5.81282L18.1872 5.10571C17.8943 4.81281 17.4195 4.81281 17.1266 5.10571L16.6642 5.56806C15.4043 6.82799 13.25 5.93566 13.25 4.15385V3.5C13.25 3.08579 12.9142 2.75 12.5 2.75H11.5ZM12 9.75C10.7574 9.75 9.75 10.7574 9.75 12C9.75 13.2426 10.7574 14.25 12 14.25C13.2426 14.25 14.25 13.2426 14.25 12C14.25 10.7574 13.2426 9.75 12 9.75ZM8.25 12C8.25 9.92893 9.92893 8.25 12 8.25C14.0711 8.25 15.75 9.92893 15.75 12C15.75 14.0711 14.0711 15.75 12 15.75C9.92893 15.75 8.25 14.0711 8.25 12Z" fill="white"/>
</g>
</svg>
